{"title":"Multiplicity (1996) 1080p AC3 HDTV OAR no logos","uid":8845513,"size":4217061310,"categoryP":"video","categoryS":"hd___movies","magnet":"?xt=urn:btih:4b160bc464a4439ef0caf8bc99592ad79349ff6c&amp;dn=Multiplicity+%281996%29+1080p+AC3+HDTV+OAR+no+logos&amp;tr=udp%3A%2F%2Ftracker.openbittorrent.com%3A80&amp;tr=udp%3A%2F%2Fopen.demonii.com%3A1337&amp;tr=udp%3A%2F%2Ftracker.coppersurfer.tk%3A6969&amp;tr=udp%3A%2F%2Fexodus.desync.com%3A6969","seeders":5,"leechers":0,"uploader":"nabsltd","files":2,"time":1377370163,"description":"This is my own rip.\n\nGeneral\nUnique ID                        : 175154732713026196801506074036088887069 (0x83C593100722D82BBB9B66CC4384571D)\nFormat                           : Matroska\nFormat version                   : Version 4 / Version 2\nFile size                        : 3.89 GiB\nDuration                         : 1h 57mn\nOverall bit rate mode            : Variable\nOverall bit rate                 : 4 754 Kbps\nEncoded date                     : UTC 2013-08-24 02:05:56\nWriting application              : mkvmerge v6.3.0 ('You can't stop me!') built on Jun 28 2013 20:09:41\nWriting library                  : libebml v1.3.0 + libmatroska v1.4.0\n\nVideo\nID                               : 1\nFormat                           : AVC\nFormat/Info                      : Advanced Video Codec\nFormat profile                   : &lt;a class=&quot;__cf_email__&quot; href=&quot;/cdn-cgi/l/email-protection&quot; data-cfemail=&quot;034b6a646b434f372d32&quot;&gt;[email&amp;#160;protected]&lt;/a&gt;&lt;script cf-hash='f9e31' type=&quot;text/javascript&quot;&gt;\n/* &lt;![CDATA[ */!function(){try{var t=&quot;currentScript&quot;in document?document.currentScript:function(){for(var t=document.getElementsByTagName(&quot;script&quot;),e=t.length;e--;)if(t[e].getAttribute(&quot;cf-hash&quot;))return t[e]}();if(t&amp;&amp;t.previousSibling){var e,r,n,i,c=t.previousSibling,a=c.getAttribute(&quot;data-cfemail&quot;);if(a){for(e=&quot;&quot;,r=parseInt(a.substr(0,2),16),n=2;a.length-n;n+=2)i=parseInt(a.substr(n,2),16)^r,e+=String.fromCharCode(i);e=document.createTextNode(e),c.parentNode.replaceChild(e,c)}}}catch(u){}}();/* ]]&gt; */&lt;/script&gt;\nFormat settings, CABAC           : Yes\nFormat settings, ReFrames        : 4 frames\nCodec ID                         : V_MPEG4/ISO/AVC\nDuration                         : 1h 57mn\nBit rate mode                    : Variable\nBit rate                         : 4 275 Kbps\nMaximum bit rate                 : 21.4 Mbps\nWidth                            : 1 912 pixels\nHeight                           : 808 pixels\nDisplay aspect ratio             : 2.35:1\nFrame rate                       : 23.976 fps\nColor space                      : YUV\nChroma subsampling               : 4:2:0\nBit depth                        : 8 bits\nScan type                        : Progressive\nBits/(Pixel*Frame)               : 0.115\nStream size                      : 3.50 GiB (90%)\nWriting library                  : x264 core 135 r2345 f0c1c53\nLanguage                         : English\nDefault                          : Yes\nForced                           : No\n\nAudio\nID                               : 2\nFormat                           : AC-3\nFormat/Info                      : Audio Coding 3\nMode extension                   : CM (complete main)\nCodec ID                         : A_AC3\nDuration                         : 1h 57mn\nBit rate mode                    : Constant\nBit rate                         : 384 Kbps\nChannel(s)                       : 2 channels\nChannel positions                : Front: L R\nSampling rate                    : 48.0 KHz\nBit depth                        : 16 bits\nCompression mode                 : Lossy\nStream size                      : 322 MiB (8%)\nLanguage                         : English\nDefault                          : Yes\nForced                           : No\n\nMenu\n00:00:00.000                     : en:Start\n00:03:59.489                     : en:At the Office\n00:12:04.015                     : en:Gemini Institute\n00:17:26.337                     : en:Making Another Doug\n00:22:36.230                     : en:Doug 2's Room\n00:26:26.752                     : en:Already in the Meeting\n00:32:20.522                     : en:Telling Laura\n00:34:45.542                     : en:Firing Vic\n00:36:28.353                     : en:Pick-Up Question\n00:39:08.096                     : en:Parenting 101\n00:43:13.633                     : en:Dinner With Noreen\n00:50:04.668                     : en:Meet 3\n00:52:53.587                     : en:Bungee Jump\n00:53:26.954                     : en:On the Job\n00:55:03.300                     : en:Three's a Crowd\n00:59:01.496                     : en:Lance &amp; Rico\n01:03:16.418                     : en:Meet 4\n01:10:40.278                     : en:Multiple Personalities?\n01:13:24.589                     : en:Shaving\n01:16:34.548                     : en:Bending Rule #1\n01:22:13.595                     : en:Peppy\n01:27:36.334                     : en:Building Inspector\n01:31:32.362                     : en:Fight &amp; Pizza Request\n01:34:19.612                     : en:&quot;She Left You&quot;\n01:39:43.853                     : en:The House Is Rockin'\n01:44:23.048                     : en:Begging Laura\n01:46:28.090                     : en:Home-Finishing\n01:50:13.982                     : en:Dougs Hit the Road\n","torrent":{"xt":"urn:btih:4b160bc464a4439ef0caf8bc99592ad79349ff6c","amp;dn":"Multiplicity+%281996%29+1080p+AC3+HDTV+OAR+no+logos","amp;tr":["udp%3A%2F%2Ftracker.openbittorrent.com%3A80","udp%3A%2F%2Fopen.demonii.com%3A1337","udp%3A%2F%2Ftracker.coppersurfer.tk%3A6969","udp%3A%2F%2Fexodus.desync.com%3A6969"],"infoHash":"4b160bc464a4439ef0caf8bc99592ad79349ff6c","infoHashBuffer":{"type":"Buffer","data":[75,22,11,196,100,164,67,158,240,202,248,188,153,89,42,215,147,73,255,108]},"announce":[],"urlList":[]}}